<svg viewBox="0 0 512 512" xmlns="http://www.w3.org/2000/svg"><g fill-rule="evenodd"><path d="m0 0h512v57h-512z" fill="#0d5eaf"/><path d="m0 57h512v57h-512z" fill="#fff"/><path d="m0 114h512v57h-512z" fill="#0d5eaf"/><path d="m0 171h512v57h-512z" fill="#fff"/><path d="m0 228h512v56.9h-512z" fill="#0d5eaf"/><path d="m0 284.9h512v57h-512z" fill="#fff"/><path d="m0 341.9h512v57h-512z" fill="#0d5eaf"/><path d="m0 398.9h512v57h-512z" fill="#fff"/></g><path d="m0 0h284.9v284.9h-284.9z" fill="#0d5eaf"/><g fill="#fff" fill-rule="evenodd" stroke-width="1.3"><path d="m114 0h57v284.9h-57z"/><path d="m0 114h284.9v57h-284.9z"/></g><path d="m0 455h512v57h-512z" fill="#0d5eaf" fill-rule="evenodd"/></svg>